<svg width="38" height="64" viewBox="0 0 38 64" fill="none" xmlns="http://www.w3.org/2000/svg">
<path d="M21.5 3C21.5 1.61929 20.3807 0.5 19 0.5C17.6193 0.5 16.5 1.61929 16.5 3L21.5 3ZM17.2322 62.7678C18.2085 63.7441 19.7915 63.7441 20.7678 62.7678L36.6777 46.8579C37.654 45.8816 37.654 44.2986 36.6777 43.3223C35.7014 42.346 34.1184 42.346 33.1421 43.3223L19 57.4645L4.85787 43.3223C3.88156 42.346 2.29864 42.346 1.32233 43.3223C0.346022 44.2986 0.346022 45.8816 1.32233 46.8579L17.2322 62.7678ZM16.5 3L16.5 61L21.5 61L21.5 3L16.5 3Z" fill="url(#paint0_linear)"/>
<defs>
<linearGradient id="paint0_linear" x1="19" y1="72.2537" x2="19" y2="7.32836" gradientUnits="userSpaceOnUse">
<stop stop-color="#AA3EE1"/>
<stop offset="1" stop-color="#258EFC"/>
</linearGradient>
</defs>
</svg>
